<mxfile host="app.diagrams.net" modified="2023-11-25T21:02:52.732Z" agent="Mozilla/5.0 (Macintosh; Intel Mac OS X 10_15_7) AppleWebKit/537.36 (KHTML, like Gecko) Chrome/119.0.0.0 Safari/537.36" etag="gd3qxpCsghyBFjdDFAAN" version="22.1.4" type="device">
  <diagram id="C5RBs43oDa-KdzZeNtuy" name="Page-1">
    <mxGraphModel dx="971" dy="541" grid="1" gridSize="10" guides="1" tooltips="1" connect="1" arrows="1" fold="1" page="1" pageScale="1" pageWidth="827" pageHeight="1169" math="0" shadow="0">
      <root>
        <mxCell id="WIyWlLk6GJQsqaUBKTNV-0" />
        <mxCell id="WIyWlLk6GJQsqaUBKTNV-1" parent="WIyWlLk6GJQsqaUBKTNV-0" />
        <mxCell id="WmSHyUOoIof1mVieS2In-0" value="Record" style="rounded=0;whiteSpace=wrap;html=1;" parent="WIyWlLk6GJQsqaUBKTNV-1" vertex="1">
          <mxGeometry x="150" y="70" width="130" height="40" as="geometry" />
        </mxCell>
        <mxCell id="WmSHyUOoIof1mVieS2In-1" value="DTO" style="rounded=0;whiteSpace=wrap;html=1;" parent="WIyWlLk6GJQsqaUBKTNV-1" vertex="1">
          <mxGeometry x="150" y="260" width="130" height="40" as="geometry" />
        </mxCell>
        <mxCell id="WmSHyUOoIof1mVieS2In-2" value="Factory" style="rounded=0;whiteSpace=wrap;html=1;" parent="WIyWlLk6GJQsqaUBKTNV-1" vertex="1">
          <mxGeometry x="430" y="70" width="130" height="40" as="geometry" />
        </mxCell>
        <mxCell id="WmSHyUOoIof1mVieS2In-3" value="Connector" style="rounded=0;whiteSpace=wrap;html=1;" parent="WIyWlLk6GJQsqaUBKTNV-1" vertex="1">
          <mxGeometry x="430" y="260" width="130" height="40" as="geometry" />
        </mxCell>
        <mxCell id="WmSHyUOoIof1mVieS2In-5" value="dto" style="endArrow=block;endFill=1;html=1;edgeStyle=orthogonalEdgeStyle;align=left;verticalAlign=top;rounded=0;exitX=0.5;exitY=1;exitDx=0;exitDy=0;entryX=0.5;entryY=0;entryDx=0;entryDy=0;" parent="WIyWlLk6GJQsqaUBKTNV-1" source="WmSHyUOoIof1mVieS2In-0" target="WmSHyUOoIof1mVieS2In-1" edge="1">
          <mxGeometry x="-1" relative="1" as="geometry">
            <mxPoint x="240" y="230" as="sourcePoint" />
            <mxPoint x="490" y="420" as="targetPoint" />
          </mxGeometry>
        </mxCell>
        <mxCell id="WmSHyUOoIof1mVieS2In-6" value="1" style="edgeLabel;resizable=0;html=1;align=left;verticalAlign=bottom;" parent="WmSHyUOoIof1mVieS2In-5" connectable="0" vertex="1">
          <mxGeometry x="-1" relative="1" as="geometry">
            <mxPoint x="-15" y="20" as="offset" />
          </mxGeometry>
        </mxCell>
        <mxCell id="WmSHyUOoIof1mVieS2In-13" value="createRecord(dto)" style="html=1;verticalAlign=bottom;endArrow=block;curved=0;rounded=0;exitX=0.5;exitY=0;exitDx=0;exitDy=0;" parent="WIyWlLk6GJQsqaUBKTNV-1" source="WmSHyUOoIof1mVieS2In-3" edge="1">
          <mxGeometry x="0.0667" relative="1" as="geometry">
            <mxPoint x="288" y="120" as="sourcePoint" />
            <mxPoint x="495" y="110" as="targetPoint" />
            <mxPoint as="offset" />
          </mxGeometry>
        </mxCell>
        <mxCell id="1_g0iV2HbMcn_0EJxqic-0" value="createFromDTO(dto)" style="html=1;verticalAlign=bottom;endArrow=block;curved=0;rounded=0;exitX=0;exitY=0.5;exitDx=0;exitDy=0;entryX=1;entryY=0.5;entryDx=0;entryDy=0;" edge="1" parent="WIyWlLk6GJQsqaUBKTNV-1" source="WmSHyUOoIof1mVieS2In-2" target="WmSHyUOoIof1mVieS2In-0">
          <mxGeometry x="0.0625" relative="1" as="geometry">
            <mxPoint x="475" y="270" as="sourcePoint" />
            <mxPoint x="475" y="120" as="targetPoint" />
            <mxPoint as="offset" />
          </mxGeometry>
        </mxCell>
      </root>
    </mxGraphModel>
  </diagram>
</mxfile>
